<?xml version="1.0" standalone="no"?>
<!DOCTYPE svg PUBLIC "-//W3C//DTD SVG 20010904//EN"
 "http://www.w3.org/TR/2001/REC-SVG-20010904/DTD/svg10.dtd">
<svg version="1.0" xmlns="http://www.w3.org/2000/svg"
 width="500.000000pt" height="500.000000pt" viewBox="0 0 500.000000 500.000000"
 preserveAspectRatio="xMidYMid meet">
<metadata>
Created by potrace 1.16, written by Peter Selinger 2001-2019
</metadata>
<g transform="translate(0.000000,500.000000) scale(0.100000,-0.100000)"
fill="#000000" stroke="none">
<path d="M2625 4643 c-148 -37 -539 -239 -750 -388 -33 -23 -91 -64 -130 -90
-329 -226 -539 -442 -707 -729 -49 -84 -146 -303 -181 -411 -67 -206 -97 -384
-101 -610 l-4 -170 8 155 c8 181 12 205 51 365 96 397 214 633 461 922 233
272 449 418 733 497 202 56 268 67 435 73 252 9 448 -17 681 -93 164 -53 414
-199 611 -357 159 -128 182 -154 212 -245 108 -325 134 -732 70 -1112 -36
-217 -118 -433 -247 -650 -141 -239 -394 -490 -827 -823 -194 -149 -378 -266
-553 -353 l-172 -85 -60 6 c-315 35 -668 154 -914 308 -215 135 -443 342 -550
500 -81 121 -131 206 -131 225 0 10 16 32 35 48 21 18 35 38 35 52 0 12 -16
68 -35 124 -20 55 -33 103 -30 106 3 3 24 -9 48 -26 86 -65 275 -178 451 -270
432 -226 754 -325 1036 -321 41 1 170 -2 287 -6 298 -10 414 12 625 123 285
149 467 337 597 615 59 125 105 263 128 382 25 130 25 524 0 645 -37 178 -104
347 -189 478 -33 50 -63 92 -65 92 -3 0 3 -12 13 -27 88 -133 123 -215 104
-238 -7 -8 -21 -15 -31 -15 -10 0 -21 -4 -24 -10 -22 -35 -107 21 -118 77 -8
40 -89 204 -147 298 -24 39 -54 91 -67 118 -21 42 -33 52 -101 86 -160 80
-385 108 -552 67 -218 -54 -456 -222 -614 -435 -76 -102 -135 -214 -209 -397
l-24 -60 31 -10 c46 -14 64 -7 77 34 21 67 145 318 189 383 70 103 144 192
197 236 104 87 256 168 363 194 73 17 233 14 312 -6 83 -21 135 -53 225 -138
65 -62 82 -85 128 -182 29 -60 62 -137 73 -170 72 -214 129 -553 90 -528 -16
10 -88 14 -108 7 -11 -4 -8 -9 12 -17 l26 -12 -68 -142 c-38 -79 -74 -143 -80
-143 -6 0 -8 -4 -5 -10 8 -13 72 -13 79 -1 4 5 1 11 -5 13 -19 6 27 99 52 105
14 4 17 8 9 13 -9 5 -8 15 4 39 9 17 20 31 25 31 5 0 24 -37 42 -82 32 -77 34
-90 33 -188 -4 -306 -133 -701 -291 -888 -166 -195 -358 -284 -582 -269 -255
17 -473 162 -621 412 -86 148 -181 356 -227 504 l-38 121 -69 0 -69 0 7 -132
c16 -310 113 -549 287 -714 55 -51 225 -181 267 -203 13 -7 22 -15 19 -17 -9
-9 -226 28 -357 61 -185 47 -370 114 -521 190 -133 67 -357 197 -378 219 -15
16 -28 52 -41 112 -10 49 -18 78 -19 64 0 -14 6 -54 14 -90 21 -94 21 -93 -19
-76 -43 18 -252 158 -335 225 -35 28 -66 49 -68 47 -11 -11 62 -271 103 -366
112 -262 328 -555 526 -715 216 -173 419 -288 653 -368 268 -91 433 -117 757
-117 354 0 603 38 833 127 383 148 707 409 945 763 140 208 256 517 307 820
21 124 28 423 14 560 -61 588 -429 1171 -962 1525 -216 143 -419 234 -664 295
-159 40 -227 51 -260 43z"/>
<path d="M1230 2899 c-109 -46 -141 -196 -58 -276 81 -79 184 -77 259 4 32 34
42 62 41 121 -2 54 -38 114 -83 138 -39 20 -126 27 -159 13z m110 -25 c43 -26
63 -69 63 -136 -2 -166 -161 -203 -203 -47 -18 66 7 152 52 183 29 20 53 20
88 0z"/>
<path d="M1685 2900 c-4 -6 5 -10 19 -10 31 0 32 -7 12 -167 -16 -124 -19
-133 -47 -133 -11 0 -17 -4 -14 -10 3 -5 21 -10 39 -10 l32 0 13 105 c6 58 16
116 20 128 8 20 11 17 31 -28 42 -95 78 -170 88 -184 17 -24 49 5 71 64 12 31
29 68 38 82 10 15 23 43 29 62 10 35 11 33 18 -44 3 -44 9 -104 12 -132 l6
-53 39 0 c21 0 41 5 44 10 3 6 2 10 -3 10 -16 0 -22 27 -34 158 -11 118 -10
126 7 138 18 14 18 14 -1 15 -10 0 -28 2 -39 4 -11 2 -25 1 -30 -3 -10 -6 -79
-149 -106 -218 l-11 -29 -13 40 c-7 22 -29 76 -48 120 -30 67 -40 81 -64 86
-45 10 -101 10 -108 -1z"/>
<path d="M2318 2752 c2 -116 0 -157 -9 -163 -19 -11 18 -17 140 -23 l105 -4
33 36 c38 42 29 54 -15 22 -31 -23 -103 -31 -155 -17 -27 7 -28 10 -25 64 3
55 4 58 36 67 42 12 41 26 -3 26 -35 0 -35 0 -35 44 0 68 6 76 57 76 24 0 58
-7 74 -16 36 -18 42 -15 32 14 -8 20 -17 22 -123 25 l-115 4 3 -155z"/>
<path d="M2850 2893 c-60 -23 -110 -94 -110 -158 0 -59 24 -102 77 -136 46
-29 51 -31 131 -26 69 4 84 2 92 -12 7 -12 9 -2 10 37 0 37 4 54 15 58 32 13
4 19 -69 16 -79 -4 -94 -14 -51 -34 14 -6 25 -15 25 -19 0 -16 -49 -21 -83
-10 -47 16 -64 37 -77 96 -20 91 32 175 110 175 25 0 45 -8 63 -24 31 -29 46
-16 23 19 -15 22 -23 25 -79 24 -34 0 -69 -3 -77 -6z"/>
</g>
</svg>
